<mxfile host="app.diagrams.net" agent="Mozilla/5.0 (Windows NT 10.0; Win64; x64) AppleWebKit/537.36 (KHTML, like Gecko) Chrome/127.0.0.0 Safari/537.36" version="24.7.7">
  <diagram name="Halaman-1" id="ja5di5rxCxdpSS6SmVJ2">
    <mxGraphModel dx="640" dy="267" grid="1" gridSize="10" guides="1" tooltips="1" connect="1" arrows="1" fold="1" page="1" pageScale="1" pageWidth="827" pageHeight="1169" math="0" shadow="0">
      <root>
        <mxCell id="0" />
        <mxCell id="1" parent="0" />
        <mxCell id="eCMntf991WsboTFRtivc-1" value="Admin / Mahasiswa" style="swimlane;whiteSpace=wrap;html=1;startSize=30;" parent="1" vertex="1">
          <mxGeometry x="30" y="20" width="170" height="220" as="geometry" />
        </mxCell>
        <mxCell id="eCMntf991WsboTFRtivc-2" style="edgeStyle=orthogonalEdgeStyle;rounded=0;orthogonalLoop=1;jettySize=auto;html=1;entryX=0.5;entryY=0;entryDx=0;entryDy=0;" parent="eCMntf991WsboTFRtivc-1" source="eCMntf991WsboTFRtivc-3" target="eCMntf991WsboTFRtivc-4" edge="1">
          <mxGeometry relative="1" as="geometry" />
        </mxCell>
        <mxCell id="eCMntf991WsboTFRtivc-3" value="" style="ellipse;html=1;shape=startState;fillColor=#000000;strokeColor=#ff0000;" parent="eCMntf991WsboTFRtivc-1" vertex="1">
          <mxGeometry x="70" y="40" width="30" height="30" as="geometry" />
        </mxCell>
        <mxCell id="eCMntf991WsboTFRtivc-4" value="Menekan Tombol Settings" style="rounded=1;whiteSpace=wrap;html=1;" parent="eCMntf991WsboTFRtivc-1" vertex="1">
          <mxGeometry x="25" y="92" width="120" height="60" as="geometry" />
        </mxCell>
        <mxCell id="eCMntf991WsboTFRtivc-6" value="Sistem" style="swimlane;whiteSpace=wrap;html=1;startSize=30;" parent="1" vertex="1">
          <mxGeometry x="200" y="20" width="170" height="220" as="geometry" />
        </mxCell>
        <mxCell id="eCMntf991WsboTFRtivc-7" value="Menampilkan Panel Settings" style="whiteSpace=wrap;html=1;rounded=1;" parent="eCMntf991WsboTFRtivc-6" vertex="1">
          <mxGeometry x="25" y="92" width="120" height="60" as="geometry" />
        </mxCell>
        <mxCell id="eCMntf991WsboTFRtivc-10" value="" style="ellipse;html=1;shape=endState;fillColor=#000000;strokeColor=#ff0000;" parent="eCMntf991WsboTFRtivc-6" vertex="1">
          <mxGeometry x="70" y="174" width="30" height="30" as="geometry" />
        </mxCell>
        <mxCell id="vwtOXJs0-TG3p6yfhGSJ-6" style="rounded=0;orthogonalLoop=1;jettySize=auto;html=1;entryX=0.5;entryY=0;entryDx=0;entryDy=0;exitX=0.5;exitY=1;exitDx=0;exitDy=0;" parent="eCMntf991WsboTFRtivc-6" source="eCMntf991WsboTFRtivc-7" target="eCMntf991WsboTFRtivc-10" edge="1">
          <mxGeometry relative="1" as="geometry">
            <mxPoint x="100" y="269" as="sourcePoint" />
          </mxGeometry>
        </mxCell>
        <mxCell id="eCMntf991WsboTFRtivc-11" value="" style="edgeStyle=orthogonalEdgeStyle;rounded=0;orthogonalLoop=1;jettySize=auto;html=1;exitX=1;exitY=0.5;exitDx=0;exitDy=0;" parent="1" source="eCMntf991WsboTFRtivc-4" target="eCMntf991WsboTFRtivc-7" edge="1">
          <mxGeometry relative="1" as="geometry">
            <mxPoint x="200" y="150.0285714285714" as="sourcePoint" />
          </mxGeometry>
        </mxCell>
      </root>
    </mxGraphModel>
  </diagram>
</mxfile>
